<svg xmlns="http://www.w3.org/2000/svg" width="24" height="24.005" viewBox="0 0 24 24.005"><g transform="translate(-0.05)"><g transform="translate(0.05)"><path d="M20.629,61.052H11.352V51.775a.672.672,0,0,0-.675-.675A10.627,10.627,0,1,0,21.3,61.727.678.678,0,0,0,20.629,61.052ZM10.677,71A9.277,9.277,0,0,1,10,52.475v9.252a.672.672,0,0,0,.675.675H19.93A9.286,9.286,0,0,1,10.677,71Z" transform="translate(-0.05 -48.349)" fill="#1dbf73"/><path d="M262.323,11.409A11.445,11.445,0,0,0,250.877,0a.724.724,0,0,0-.727.727V11.446a.724.724,0,0,0,.727.727H261.6a.724.724,0,0,0,.727-.727ZM251.6,10.725V1.486a10,10,0,0,1,9.239,9.239H251.6Z" transform="translate(-238.323 0)" fill="#1dbf73"/></g></g></svg>