<svg xmlns="http://www.w3.org/2000/svg" width="25.5" height="25.5" viewBox="0 0 25.5 25.5"><g transform="translate(0.75 0.75)"><path d="M22.5,24.75h-3a2.165,2.165,0,0,1-2.251-2.25V9A2.165,2.165,0,0,1,19.5,6.751h3A2.164,2.164,0,0,1,24.75,9V22.5a2.164,2.164,0,0,1-2.25,2.25Zm-3-16.5a.677.677,0,0,0-.751.75V22.5a.677.677,0,0,0,.751.75h3a.676.676,0,0,0,.75-.75V9a.676.676,0,0,0-.75-.75Zm-6,16.5h-3A2.164,2.164,0,0,1,8.25,22.5V1.5A2.259,2.259,0,0,1,8.882-.117,2.258,2.258,0,0,1,10.5-.75h3a2.258,2.258,0,0,1,1.618.633A2.259,2.259,0,0,1,15.75,1.5v21a2.164,2.164,0,0,1-2.25,2.25Zm-3-24a.676.676,0,0,0-.75.75v21a.676.676,0,0,0,.75.75h3a.676.676,0,0,0,.75-.75V1.5A.676.676,0,0,0,13.5.75Zm-6,24h-3a2.259,2.259,0,0,1-1.617-.632A2.258,2.258,0,0,1-.75,22.5v-6a2.261,2.261,0,0,1,.632-1.618A2.258,2.258,0,0,1,1.5,14.25h3a2.26,2.26,0,0,1,1.619.633A2.26,2.26,0,0,1,6.751,16.5v6a2.258,2.258,0,0,1-.633,1.618A2.261,2.261,0,0,1,4.5,24.75Zm-3-9a.677.677,0,0,0-.75.751v6a.676.676,0,0,0,.75.75h3a.677.677,0,0,0,.751-.75v-6A.678.678,0,0,0,4.5,15.75Z" transform="translate(0 0)" fill="#1dbf73"/></g></svg>