<svg xmlns="http://www.w3.org/2000/svg" width="24" height="20.604" viewBox="0 0 24 20.604"><g transform="translate(0 -34.05)"><path d="M20.145,37.232H14.459a2.511,2.511,0,0,1-2.509-2.509.671.671,0,0,0-.673-.673H3.855A3.861,3.861,0,0,0,0,37.905V50.8a3.861,3.861,0,0,0,3.855,3.855H20.145A3.861,3.861,0,0,0,24,50.8V41.082A3.857,3.857,0,0,0,20.145,37.232Zm2.509,13.561A2.511,2.511,0,0,1,20.145,53.3H3.855a2.511,2.511,0,0,1-2.509-2.509V37.905A2.511,2.511,0,0,1,3.855,35.4h6.808a3.862,3.862,0,0,0,3.8,3.182h5.686a2.511,2.511,0,0,1,2.509,2.509v9.706Z" fill="#1dbf73"/></g></svg>