<svg xmlns="http://www.w3.org/2000/svg" width="24" height="29.594" viewBox="0 0 24 29.594"><path d="M11.723-3.664h1.8v14.8h-1.8Zm3.7,0h1.8v14.8h-1.8Zm3.7,0h1.8v14.8h-1.8Zm-14.8-5.5h24v1.8h-24Zm16.6,0h-1.8v-.9a.877.877,0,0,0-.992-.992H14.52a.877.877,0,0,0-.992.992v.9h-1.8v-.9a2.783,2.783,0,0,1,.767-1.985,2.662,2.662,0,0,1,2.03-.812h3.609a2.662,2.662,0,0,1,2.03.812,2.783,2.783,0,0,1,.767,1.985Zm.9,25.895H10.82A3.028,3.028,0,0,1,7.843,14.02L6.129-8.175l1.895-.18,1.624,22.2a.8.8,0,0,0,.09.361.9.9,0,0,0,.271.316,2.37,2.37,0,0,0,.361.226,1,1,0,0,0,.451.09H21.828A1.081,1.081,0,0,0,23,13.84l1.624-22.2,1.895.18-1.714,22.2a3.028,3.028,0,0,1-2.977,2.707Z" transform="translate(-4.324 12.867)" fill="#1dbf73"/></svg>